HIERARCHY
ROOT root
{
	OFFSET	0	13.1	24.9
	CHANNELS 6  Xposition Yposition Zposition Xrotation Yrotation Zrotation
	JOINT spine_1
	{
		OFFSET	0	9.99999	0
		CHANNELS 3  Xrotation Yrotation Zrotation
		JOINT spine_2
		{
			OFFSET	0	112	-10
			CHANNELS 3  Xrotation Yrotation Zrotation
			JOINT spine_3
			{
				OFFSET	0	206.5	19.3
				CHANNELS 3  Xrotation Yrotation Zrotation
				JOINT spine_4
				{
					OFFSET	0	110.4	14.6
					CHANNELS 3  Xrotation Yrotation Zrotation
					JOINT neck_1
					{
						OFFSET	0	71.8	-50.3
						CHANNELS 3  Xrotation Yrotation Zrotation
						JOINT neck_2
						{
							OFFSET	0	86.2	-25.8
							CHANNELS 3  Xrotation Yrotation Zrotation
							JOINT head_ee
							{
								OFFSET	0	179.8	-8.7
								CHANNELS 3  Xrotation Yrotation Zrotation
								End Site
								{
									OFFSET	1	0	0
								}
							}
						}
					}
					JOINT left_clavicle
					{
						OFFSET	-43.2	22.4	-70.8
						CHANNELS 3  Xrotation Yrotation Zrotation
						JOINT left_shoulder
						{
							OFFSET	-93.9	-5.79999	48.7
							CHANNELS 3  Xrotation Yrotation Zrotation
							JOINT left_elbow
							{
								OFFSET	-291.4	-30.8	15.2
								CHANNELS 3  Xrotation Yrotation Zrotation
								JOINT left_lowarm_twist
								{
									OFFSET	-110.7	-3.89999	13.6
									CHANNELS 3  Xrotation Yrotation Zrotation
									JOINT left_hand
									{
										OFFSET	-110.7	-3.89999	13.6
										CHANNELS 3  Xrotation Yrotation Zrotation
										JOINT left_ee
										{
											OFFSET	-80.8	-5.10001	12.1
											CHANNELS 3  Xrotation Yrotation Zrotation
											End Site
											{
												OFFSET	1	0	0
											}
										}
									}
								}
							}
						}
					}
					JOINT right_clavicle
					{
						OFFSET	43.2	22.4	-70.8
						CHANNELS 3  Xrotation Yrotation Zrotation
						JOINT right_shoulder
						{
							OFFSET	93.9	-5.79999	48.7
							CHANNELS 3  Xrotation Yrotation Zrotation
							JOINT right_elbow
							{
								OFFSET	291.4	-30.8	15.2
								CHANNELS 3  Xrotation Yrotation Zrotation
								JOINT right_lowarm_twist
								{
									OFFSET	110.7	-3.89999	13.6
									CHANNELS 3  Xrotation Yrotation Zrotation
									JOINT right_hand
									{
										OFFSET	110.7	-3.89999	13.6
										CHANNELS 3  Xrotation Yrotation Zrotation
										JOINT right_ee
										{
											OFFSET	80.8	-5.10001	12.1
											CHANNELS 3  Xrotation Yrotation Zrotation
											End Site
											{
												OFFSET	1	0	0
											}
										}
									}
								}
							}
						}
					}
				}
			}
		}
	}
	JOINT left_hip
	{
		OFFSET	-82.8	-127.5	0.300001
		CHANNELS 3  Xrotation Yrotation Zrotation
		JOINT left_knee
		{
			OFFSET	-28.2	-396.7	2.2
			CHANNELS 3  Xrotation Yrotation Zrotation
			JOINT left_ankle
			{
				OFFSET	-11.7	-411.3	35.4
				CHANNELS 3  Xrotation Yrotation Zrotation
				JOINT left_toes
				{
					OFFSET	0	-60	-88.6
					CHANNELS 3  Xrotation Yrotation Zrotation
					JOINT left_foot_ee
					{
						OFFSET	-22.5	-16.5	-42.2
						CHANNELS 3  Xrotation Yrotation Zrotation
						End Site
						{
							OFFSET	1	0	0
						}
					}
				}
			}
		}
	}
	JOINT right_hip
	{
		OFFSET	82.8	-127.5	0.300001
		CHANNELS 3  Xrotation Yrotation Zrotation
		JOINT right_knee
		{
			OFFSET	28.2	-396.7	2.2
			CHANNELS 3  Xrotation Yrotation Zrotation
			JOINT right_ankle
			{
				OFFSET	11.7	-411.3	35.4
				CHANNELS 3  Xrotation Yrotation Zrotation
				JOINT right_toes
				{
					OFFSET	0	-60	-88.6
					CHANNELS 3  Xrotation Yrotation Zrotation
					JOINT right_foot_ee
					{
						OFFSET	22.5	-16.5	-42.2
						CHANNELS 3  Xrotation Yrotation Zrotation
						End Site
						{
							OFFSET	1	0	0
						}
					}
				}
			}
		}
	}
}
MOTION
Frames: 16
Frame Time: 0.02
2927.47 732.103 -1012.49 -13.6617 57.675 10.0939 1.84203 0.257719 1.29553 1.84294 0.174766 1.30931 1.84698 -0.0618233 1.31947 1.84458 0.14732 1.31268 -1.2657 14.404 2.64227 -0.92761 23.8375 4.49739 -0.0 0.0 -0.0 -1.68586 13.4936 -1.17598 -16.349 -29.3866 68.6239 0.872815 -23.3818 0.18061 -1.13213 -0.0412632 0.138687 0.344142 -4.62247 0.360453 -0.0 0.0 -0.0 11.0377 12.1503 -22.0959 -6.18002 24.6518 -60.4152 0.780574 21.1401 -0.14566 35.9519 0.155623 4.51553 -0.89137 -26.0909 -5.30657 0.0 0.0 0.0 28.8364 3.8738 -9.81393 -60.0046 -2.20049 8.52596 33.0545 23.8687 -4.42236 -18.0955 0.0 0.0 -0.0 0.0 -0.0 22.1945 17.2107 -5.38343 -22.7861 -0.252153 -3.46463 31.5704 -20.0698 4.1788 -9.26656 0.0 0.0 0.0 0.0 0.0 
2909.63 732.039 -1020.85 -15.3182 57.933 11.5219 2.08909 0.248008 1.32307 2.09005 0.163323 1.33616 2.09383 -0.0720899 1.34417 2.09134 0.141083 1.33869 -0.179993 14.3475 2.97408 0.196214 23.2416 4.67248 -0.0 0.0 -0.0 -2.21568 13.8379 -1.98943 -18.2667 -30.0922 68.8669 0.861541 -23.1117 0.17616 -0.792508 -0.0285967 0.0971675 0.278035 -2.76576 0.698461 -0.0 0.0 -0.0 11.3228 12.5573 -22.7276 -5.36837 25.7229 -58.9616 0.820017 22.1075 -0.160196 36.0786 0.161165 4.53075 -0.502287 -24.2674 -6.7722 0.0 0.0 0.0 30.1715 4.90763 -9.46806 -59.5078 -2.14707 8.471 34.9849 24.2105 -4.63841 -18.6824 0.0 0.0 -0.0 0.0 -0.0 21.0462 17.3482 -5.43806 -21.4817 -0.275088 -3.26578 33.1594 -22.9365 4.4111 -8.98083 0.0 0.0 0.0 0.0 0.0 
2890.57 730.137 -1029.7 -17.1157 59.0095 13.41 2.4184 0.267306 1.2577 2.41926 0.18674 1.27216 2.42331 -0.0304745 1.28543 2.42104 0.1729 1.27411 -0.981948 14.6375 3.82662 -0.641112 23.2501 5.73544 -0.0 0.0 -0.0 -2.10782 12.7046 -2.00373 -19.3262 -29.6277 69.7307 0.712701 -19.4457 0.122118 -0.225871 -0.00801297 0.0277332 0.172266 -1.57751 0.488495 -0.0 0.0 -0.0 11.566 14.0607 -23.2398 -4.04594 25.5591 -57.6522 0.835389 22.4809 -0.166027 36.5005 0.179867 4.58134 -0.419352 -24.7352 -7.42879 0.0 0.0 0.0 35.9199 4.30106 -11.0827 -60.1902 -2.22056 8.54637 35.7449 20.9541 -4.63694 -19.2576 0.0 0.0 -0.0 0.0 -0.0 19.1011 18.2645 -5.24597 -19.9155 -0.296635 -3.02643 35.7846 -22.1086 4.66776 -8.295 0.0 0.0 0.0 0.0 0.0 
2874.47 727.697 -1037.95 -16.1225 57.8867 13.1282 2.67478 0.267901 0.950753 2.67526 0.206862 0.965872 2.67867 0.0454174 0.986729 2.67737 0.200675 0.967176 0.342454 14.1445 2.94385 0.728146 22.7904 4.544 -0.0 0.0 -0.0 -2.10341 12.4478 -2.03954 -20.152 -28.9175 70.5946 0.593022 -16.3711 0.0853039 0.130796 0.00459031 -0.0160735 0.0169929 0.522927 0.333557 -0.0 0.0 -0.0 11.9138 12.268 -24.0679 -2.38154 25.7672 -57.1045 0.865959 23.2177 -0.177898 36.1381 0.163777 4.53788 -0.321383 -23.2266 -7.40895 0.0 0.0 0.0 41.1642 3.60798 -11.9883 -59.43 -2.13875 8.46235 36.3339 20.2118 -4.68018 -20.216 0.0 0.0 -0.0 0.0 -0.0 17.2937 20.585 -6.26239 -19.499 -0.301263 -2.96269 38.1 -24.3997 4.96334 -8.17055 0.0 0.0 0.0 0.0 0.0 
2854.08 725.654 -1040.81 -17.2008 57.1276 14.1429 2.84013 0.189634 0.805424 2.84048 0.138 0.815858 2.84236 0.00448559 0.827433 2.84143 0.135103 0.816342 -0.598439 14.1781 3.41152 -0.259628 22.671 5.18879 -0.0 0.0 -0.0 -2.34384 12.8687 -2.36899 -20.9451 -28.6137 72.188 0.547094 -15.1639 0.072823 0.580231 0.0200825 -0.071383 0.063117 1.5112 1.05532 -0.0 0.0 -0.0 12.0112 14.2247 -24.2477 -2.07441 25.7862 -55.4562 0.956015 25.341 -0.214935 36.6365 0.185975 4.59762 -0.215425 -22.6302 -7.79679 0.0 0.0 0.0 42.2689 -2.03712 -8.56689 -59.5896 -2.15583 8.48008 34.7119 19.8985 -4.50893 -20.7764 0.0 0.0 -0.0 0.0 -0.0 16.1782 19.5783 -5.33112 -18.7719 -0.308231 -2.85134 40.6494 -22.7858 5.16133 -6.94998 0.0 0.0 0.0 0.0 0.0 
2834.31 725.708 -1045.86 -16.0521 54.8635 12.563 3.20343 0.321271 0.798073 3.20374 0.269838 0.816897 3.2075 0.139854 0.848864 3.2066 0.272157 0.816127 -0.266006 14.0122 2.83136 0.089952 22.7725 4.50108 -0.0 0.0 -0.0 -2.53833 13.0378 -2.66276 -22.0106 -28.195 72.7702 0.46263 -12.908 0.0523341 0.39861 0.0138739 -0.0490176 -0.0902561 4.72093 1.38212 -0.0 0.0 -0.0 12.4048 14.9453 -25.1277 -1.40559 25.9331 -55.2741 1.05949 27.6916 -0.261142 36.7421 0.190745 4.61025 0.213429 -21.9861 -10.0817 0.0 0.0 0.0 46.5486 -1.55558 -10.4797 -53.4575 -1.53644 7.76641 33.9935 21.3161 -4.4635 -25.4488 0.0 0.0 -0.0 0.0 -0.0 14.0302 21.7625 -4.2878 -18.4041 -0.311217 -2.795 42.009 -22.0875 5.26543 -6.83997 0.0 0.0 0.0 0.0 0.0 
2817.15 721.024 -1043.52 -18.3214 54.6017 15.2623 3.47824 0.199668 0.568345 3.4784 0.163098 0.579898 3.47999 0.0740053 0.597834 3.47953 0.167492 0.578645 -0.251727 13.1903 1.37387 0.0993322 22.4748 2.8526 -0.0 0.0 -0.0 -2.03148 12.9743 -1.83151 -22.0389 -27.9271 74.091 0.346121 -9.72943 0.0294584 0.735525 0.0253343 -0.0905217 0.0758277 7.28857 3.52962 -0.0 0.0 -0.0 12.5023 15.2786 -25.3412 0.284429 24.5122 -54.0126 1.16481 29.9844 -0.311949 37.5532 0.228153 4.70697 0.928126 -16.5723 -12.5316 0.0 0.0 0.0 48.929 -3.26483 -10.9786 -48.7063 -1.11138 7.17095 37.569 25.4004 -4.94064 -26.8662 0.0 0.0 -0.0 0.0 -0.0 13.4744 23.2031 -3.95506 -16.4013 -0.321128 -2.48788 40.8715 -21.3167 5.14135 -8.74208 0.0 0.0 0.0 0.0 0.0 
2800.67 719.704 -1049.46 -19.9998 52.6651 17.2138 3.67223 0.448405 0.62924 3.67236 0.407457 0.656497 3.67698 0.30652 0.709262 3.67652 0.414685 0.651955 0.489154 12.3057 1.25491 0.820194 20.8585 2.53357 -0.0 0.0 -0.0 -2.30299 13.8658 -2.12778 -23.1365 -28.122 74.0112 0.345845 -9.72182 0.0294118 0.0912124 0.00320471 -0.0112081 0.17682 7.71991 4.36224 -0.0 0.0 -0.0 12.5709 15.0922 -25.5058 1.34922 24.7884 -54.0944 1.23729 31.5035 -0.349004 39.3476 0.315765 4.91904 1.25798 -15.7616 -14.3434 0.0 0.0 0.0 45.4053 -10.2925 -10.9425 -40.3089 -0.486535 6.04146 38.0934 25.3966 -4.99342 -31.0062 0.0 0.0 -0.0 0.0 -0.0 13.6462 23.9769 -4.30933 -14.8419 -0.321409 -2.24864 40.2669 -17.8886 5.00726 -9.50474 0.0 0.0 0.0 0.0 0.0 
2778.74 716.766 -1054.29 -20.4481 52.54 18.2252 3.88559 0.2398 0.43748 3.88567 0.211477 0.451852 3.8873 0.144495 0.477507 3.88705 0.218094 0.448695 1.36161 11.6232 0.885611 1.69384 19.8045 1.95583 -0.0 0.0 -0.0 -2.33853 14.7114 -2.03796 -23.6104 -27.9531 74.271 0.272467 -7.68705 0.0183051 -0.169424 -0.00600054 0.0208052 0.410385 8.4063 6.15605 -0.0 0.0 -0.0 12.7139 15.1963 -25.8328 2.41895 23.9464 -54.081 1.31565 33.092 -0.390878 40.3159 0.365795 5.03233 1.48076 -12.1517 -14.5375 0.0 0.0 0.0 43.7619 -17.6239 -9.83549 -31.4431 -0.0139083 4.76531 38.9485 26.8626 -5.12824 -33.0241 0.0 0.0 -0.0 0.0 -0.0 12.3629 23.4681 -4.11332 -14.1307 -0.319374 -2.13953 40.262 -15.7377 4.96777 -11.311 0.0 0.0 0.0 0.0 0.0 
2757.65 714.138 -1055.93 -21.2508 52.7184 18.6523 4.14481 0.0502792 0.400617 4.1449 0.0246852 0.403004 4.14502 -0.031556 0.402525 4.1448 0.0324107 0.402457 0.822019 11.6805 1.75964 1.11035 19.2714 2.9867 -0.0 0.0 -0.0 -2.23262 14.715 -1.866 -23.7116 -28.1877 75.0354 0.248798 -7.02627 0.0152744 -0.603831 -0.0216666 0.0740697 0.579005 9.74639 7.77595 -0.0 0.0 -0.0 12.6441 14.5544 -25.6914 2.89089 23.8289 -53.8673 1.41578 35.0414 -0.446978 41.0009 0.402347 5.11196 1.86654 -9.90145 -16.3065 0.0 0.0 0.0 42.2962 -21.891 -9.40551 -24.1324 0.223741 3.66926 40.1901 25.7384 -5.21087 -35.2874 0.0 0.0 -0.0 0.0 -0.0 10.191 23.6566 -2.67895 -12.8075 -0.311987 -1.93665 40.5768 -13.8641 4.96763 -12.2258 0.0 0.0 0.0 0.0 0.0 
2734.67 710.172 -1058.87 -20.6246 51.1001 17.9559 4.12286 0.326556 0.293732 4.12286 0.307203 0.313916 4.12454 0.26048 0.353648 4.12451 0.313063 0.308072 1.5305 10.7655 1.18105 1.8048 18.0123 2.19616 -0.0 0.0 -0.0 -2.25196 15.0106 -1.84607 -23.9089 -28.2495 75.2883 0.244246 -6.89898 0.0147226 -0.711905 -0.0256268 0.0873029 0.775241 9.44638 8.93531 -0.0 0.0 -0.0 12.6535 14.592 -25.7121 3.53013 23.3886 -53.9556 1.49684 36.5542 -0.494395 42.2644 0.472252 5.25767 2.1996 -7.41742 -17.6816 0.0 0.0 0.0 39.7802 -24.9197 -11.486 -19.1217 0.305055 2.90492 40.1157 24.5936 -5.1659 -36.5255 0.0 0.0 -0.0 0.0 -0.0 8.15484 25.2832 -1.35607 -11.8907 -0.304122 -1.79621 40.9158 -11.611 4.97042 -13.0656 0.0 0.0 0.0 0.0 0.0 
2714.45 705.532 -1062.94 -21.9431 51.4291 19.1169 4.31797 0.061467 0.400875 4.31806 0.0358339 0.403974 4.31825 -0.0194252 0.405094 4.31802 0.0447951 0.403078 1.26947 11.0669 1.36512 1.54796 18.4339 2.45186 -0.0 0.0 -0.0 -2.11319 15.4357 -1.5506 -23.3914 -27.6764 75.4427 0.228471 -6.45728 0.012888 -1.02622 -0.0372866 0.125747 0.977521 9.74769 10.3692 -0.0 0.0 -0.0 12.6696 14.4786 -25.7524 3.82607 23.9221 -54.2097 1.55267 37.563 -0.528042 42.9335 0.510571 5.33421 2.47931 -5.42021 -18.8877 0.0 0.0 0.0 36.4562 -27.5522 -12.4024 -10.929 0.293458 1.64904 41.2343 23.8615 -5.24794 -37.2461 0.0 0.0 -0.0 0.0 -0.0 7.73166 22.7562 -1.17805 -12.2828 -0.307761 -1.85626 41.1531 -12.2325 4.99755 -12.8945 0.0 0.0 0.0 0.0 0.0 
2692.82 698.427 -1067.21 -21.836 50.8462 19.0967 4.42212 0.191646 0.313668 4.42216 0.171298 0.325227 4.4231 0.126122 0.345266 4.42298 0.179067 0.321015 1.46736 11.258 3.12175 1.71302 17.2744 4.37202 -0.0 0.0 -0.0 -2.23659 15.6832 -1.70492 -23.7174 -28.654 75.0356 0.220526 -6.23454 0.0120099 -1.05318 -0.0382969 0.129042 1.02454 9.79029 10.6925 -0.0 0.0 -0.0 12.6664 14.5165 -25.744 4.33198 22.8473 -54.3144 1.59772 38.3574 -0.555749 43.2264 0.527632 5.36759 2.69802 -3.92725 -19.8653 0.0 0.0 0.0 37.3611 -29.7651 -12.071 -11.6518 0.301704 1.75963 40.8538 23.8514 -5.21226 -37.8747 0.0 0.0 -0.0 0.0 -0.0 6.34472 25.6722 -0.286451 -12.9537 -0.313034 -1.95906 41.5955 -11.3193 5.02566 -12.6731 0.0 0.0 0.0 0.0 0.0 
2660.95 687.637 -1078.46 -20.4886 50.8217 18.7224 4.37 -0.0508804 0.200637 4.37002 -0.0635443 0.196993 4.36979 -0.089571 0.186604 4.36974 -0.0589763 0.198408 3.85159 10.9567 1.56893 4.17444 17.6434 2.39344 -0.0 0.0 -0.0 -3.19525 15.0552 -3.35926 -24.8162 -28.2885 76.8091 0.350976 -9.86325 0.0302845 -1.27305 -0.0465912 0.155893 1.52417 10.0177 14.0646 -0.0 0.0 -0.0 11.993 14.0392 -24.2114 5.53799 21.6318 -57.4937 1.7634 41.1347 -0.661717 41.9651 0.455404 5.2233 2.81408 -1.52786 -19.7684 0.0 0.0 0.0 35.5783 -30.5852 -13.3589 -9.20465 0.268155 1.38566 39.8953 25.8768 -5.18712 -37.74 0.0 0.0 -0.0 0.0 -0.0 5.65268 24.0497 -1.16659 -17.8126 -0.315262 -2.70432 41.6662 -10.1973 5.02139 -4.65552 0.0 0.0 0.0 0.0 0.0 
2635.32 681.075 -1086.0 -20.1847 49.7463 18.5292 4.45039 0.0426725 0.177659 4.45041 0.0312811 0.180014 4.45049 0.00693649 0.18258 4.45045 0.0356845 0.179193 1.97672 11.4408 1.68484 2.28439 18.7121 2.74917 -0.0 0.0 -0.0 -3.66308 14.9153 -4.14621 -24.4351 -28.394 76.8901 0.455697 -12.7209 0.0507962 -0.799612 -0.0288594 0.0980366 1.58205 9.45649 14.2464 -0.0 0.0 -0.0 11.6213 13.4072 -23.3825 4.10688 21.1445 -58.2484 1.96547 44.2299 -0.798758 42.9683 0.512592 5.33819 3.03296 0.322773 -20.5962 0.0 0.0 0.0 34.4809 -30.9018 -15.0619 -6.01126 0.200414 0.900362 30.0282 25.2377 -4.11641 -37.883 0.0 0.0 -0.0 0.0 -0.0 3.58608 22.1505 -0.271175 -17.4627 -0.317213 -2.65068 40.8963 -4.71432 4.93449 -4.3419 0.0 0.0 0.0 0.0 0.0 
2611.34 676.366 -1094.72 -18.6866 48.6304 17.946 4.4014 -0.0801172 -0.0379592 4.4014 -0.0775394 -0.0429803 4.40146 -0.0710526 -0.0530206 4.40147 -0.0785346 -0.0411338 3.26035 10.9912 0.159498 3.63968 19.0056 0.865708 -0.0 0.0 -0.0 -3.49117 14.9578 -3.85819 -25.1003 -28.5664 75.7754 0.482222 -13.4352 0.0567984 -0.228601 -0.00811078 0.028068 2.06661 9.07051 17.3637 -0.0 0.0 -0.0 11.4716 13.4306 -23.0434 2.88763 20.9478 -59.6165 2.13917 46.6539 -0.922554 39.6547 0.331425 4.95506 3.24013 -0.0800336 -22.2494 0.0 0.0 0.0 31.0828 -30.2419 -17.0802 -4.11077 0.14729 0.613549 22.0634 28.2586 -3.20146 -33.9071 0.0 0.0 -0.0 0.0 -0.0 2.54777 20.5133 -0.319519 -18.7172 -0.308698 -2.84297 40.8141 -6.97215 4.93084 0.578017 -0.0 -0.0 0.0 0.0 0.0 
